{"title":"Turbo 2013 DVDrip English Klam","uid":9382698,"size":1835968628,"categoryP":"video","categoryS":"movies","magnet":"?xt=urn:btih:5a5d63bdc10cb29ad605c41165ef1f78bf71ca4e&amp;dn=Turbo+2013+DVDrip+English+Klam&amp;tr=udp%3A%2F%2Ftracker.openbittorrent.com%3A80&amp;tr=udp%3A%2F%2Fopen.demonii.com%3A1337&amp;tr=udp%3A%2F%2Ftracker.coppersurfer.tk%3A6969&amp;tr=udp%3A%2F%2Fexodus.desync.com%3A6969","seeders":1,"leechers":0,"uploader":"Klambake","files":-1,"time":1387737429,"description":"With: the voices of Ryan Reynolds, Samuel L. Jackson and Michelle Rodriguez\n\nEen doodnormale tuinslak heeft de absurde droom om de snelste slak ter wereld te worden. Echter, wanneer hij een raar ongeluk krijgt beschikt hij over een ongelofelijke snelheid. Hierdoor wordt de kans om zijn doel te realiseren een stuk groter.\n\nA freak accident might just help an everyday garden snail achieve his biggest dream: winning the Indy 500. \n &lt;a href=&quot;\nhttp://www.imdb.com/title/tt1860353&quot; rel=&quot;nofollow&quot; target=&quot;_NEW&quot;&gt;\nhttp://www.imdb.com/title/tt1860353&lt;/a&gt;\t\n\n--------------------- Dutch Friends 4ever ---------------------\n---------------------------------------------------------------\n- Bezoek ook eens mijn vrienden op: &lt;a href=&quot; http://www.Film-Test.nl&quot; rel=&quot;nofollow&quot; target=&quot;_NEW&quot;&gt; http://www.Film-Test.nl&lt;/a&gt; --\n----- voor mijn Nederlandse Sync. ondertitels ---- en meer ----\n------- http://www.Film-Test.nl ---- Over Films en meer -------\n---------------------------------------------------------------\n\nGeneral:\n\nComplete name                    : TurboTurbo.avi\nFormat                           : AVI\nFormat/Info                      : Audio Video Interleave\nFile size                        : 1.71 GiB\nDuration                         : 1h 35mn\nOverall bit rate                 : 2 558 Kbps\n\nVideo:\n\nFormat                           : MPEG-4 Visual\nFormat profile                   : Simple@L3\nFormat settings, BVOP            : No\nFormat settings, QPel            : No\nFormat settings, GMC             : No warppoints\nFormat settings, Matrix          : Default (H.263)\nCodec ID                         : XVID\nCodec ID/Hint                    : XviD\nDuration                         : 1h 35mn\nBit rate                         : 2 099 Kbps\nWidth                            : 720 pixels\nHeight                           : 304 pixels\nDisplay aspect ratio             : 2.35:1\nFrame rate                       : 25.000 fps\nColor space                      : YUV\nChroma subsampling               : 4:2:0\nBit depth                        : 8 bits\nScan type                        : Progressive\nCompression mode                 : Lossy\nBits/(Pixel*Frame)               : 0.384\nStream size                      : 1.40 GiB (82%)\nWriting library                  : XviD 1.1.2 (UTC 2006-11-01)\n\nAudio:\n\nFormat                           : AC-3\nFormat/Info                      : Audio Coding 3\nMode extension                   : CM (complete main)\nCodec ID                         : 2000\nDuration                         : 1h 35mn\nBit rate mode                    : Constant\nBit rate                         : 448 Kbps\nChannel(s)                       : 6 channels\nChannel positions                : Front: L C R, Side: L R, LFE\nSampling rate                    : 48.0 KHz\nBit depth                        : 16 bits\nCompression mode                 : Lossy\nStream size                      : 307 MiB (18%)\nAlignment                        : Aligned on interleaves\nInterleave, duration             : 32 ms (0.80 video frame)\nInterleave, preload duration     : 576 ms","torrent":{"xt":"urn:btih:5a5d63bdc10cb29ad605c41165ef1f78bf71ca4e","amp;dn":"Turbo+2013+DVDrip+English+Klam","amp;tr":["udp%3A%2F%2Ftracker.openbittorrent.com%3A80","udp%3A%2F%2Fopen.demonii.com%3A1337","udp%3A%2F%2Ftracker.coppersurfer.tk%3A6969","udp%3A%2F%2Fexodus.desync.com%3A6969"],"infoHash":"5a5d63bdc10cb29ad605c41165ef1f78bf71ca4e","infoHashBuffer":{"type":"Buffer","data":[90,93,99,189,193,12,178,154,214,5,196,17,101,239,31,120,191,113,202,78]},"announce":[],"urlList":[]}}